<?xml version="1.0" encoding="utf-8" ?>
<svg baseProfile="tiny" height="600px" version="1.2" width="800px" xmlns="http://www.w3.org/2000/svg" xmlns:ev="http://www.w3.org/2001/xml-events" xmlns:xlink="http://www.w3.org/1999/xlink"><defs /><text fill="#000" font-family="Chivo" font-size="18px" font-weight="bold" x="20" y="40">Students</text><rect fill="#4CAF50" height="60" rx="10" ry="10" width="300" x="20" y="50" /><text fill="#fff" font-family="Chivo" font-size="16px" x="35" y="85">Python (40%)</text><rect fill="#F44336" height="60" rx="10" ry="10" width="300" x="340" y="50" /><text fill="#fff" font-family="Chivo" font-size="16px" x="355" y="85">Java (30%)</text><text fill="#000" font-family="Chivo" font-size="18px" font-weight="bold" x="20" y="150">Students</text><rect fill="#2196F3" height="60" rx="10" ry="10" width="300" x="20" y="160" /><text fill="#fff" font-family="Chivo" font-size="16px" x="35" y="195">JavaScript (20%)</text><rect fill="#FF9800" height="60" rx="10" ry="10" width="300" x="340" y="160" /><text fill="#fff" font-family="Chivo" font-size="16px" x="355" y="195">C++ (10%)</text><text fill="#000" font-family="Chivo" font-size="18px" font-weight="bold" x="20" y="260">Professionals</text><rect fill="#9C27B0" height="60" rx="10" ry="10" width="300" x="20" y="270" /><text fill="#fff" font-family="Chivo" font-size="16px" x="35" y="305">Java (35%)</text><rect fill="#03A9F4" height="60" rx="10" ry="10" width="300" x="340" y="270" /><text fill="#fff" font-family="Chivo" font-size="16px" x="355" y="305">Python (30%)</text><text fill="#000" font-family="Chivo" font-size="18px" font-weight="bold" x="20" y="370">Professionals</text><rect fill="#795548" height="60" rx="10" ry="10" width="300" x="20" y="380" /><text fill="#fff" font-family="Chivo" font-size="16px" x="35" y="415">C# (20%)</text><rect fill="#607D8B" height="60" rx="10" ry="10" width="300" x="340" y="380" /><text fill="#fff" font-family="Chivo" font-size="16px" x="355" y="415">Go (15%)</text><text fill="#000" font-family="Chivo" font-size="18px" font-weight="bold" x="20" y="480">Researchers</text><rect fill="#4CAF50" height="60" rx="10" ry="10" width="300" x="20" y="490" /><text fill="#fff" font-family="Chivo" font-size="16px" x="35" y="525">Python (50%)</text><rect fill="#F44336" height="60" rx="10" ry="10" width="300" x="340" y="490" /><text fill="#fff" font-family="Chivo" font-size="16px" x="355" y="525">R (25%)</text><text fill="#000" font-family="Chivo" font-size="18px" font-weight="bold" x="20" y="590">Researchers</text><rect fill="#2196F3" height="60" rx="10" ry="10" width="300" x="20" y="600" /><text fill="#fff" font-family="Chivo" font-size="16px" x="35" y="635">Julia (15%)</text><rect fill="#FF9800" height="60" rx="10" ry="10" width="300" x="340" y="600" /><text fill="#fff" font-family="Chivo" font-size="16px" x="355" y="635">Matlab (10%)</text><text fill="#000" font-family="Chivo" font-size="18px" font-weight="bold" x="20" y="700">Hobbyists</text><rect fill="#9C27B0" height="60" rx="10" ry="10" width="300" x="20" y="710" /><text fill="#fff" font-family="Chivo" font-size="16px" x="35" y="745">JavaScript (45%)</text><rect fill="#03A9F4" height="60" rx="10" ry="10" width="300" x="340" y="710" /><text fill="#fff" font-family="Chivo" font-size="16px" x="355" y="745">Python (35%)</text><text fill="#000" font-family="Chivo" font-size="18px" font-weight="bold" x="20" y="810">Hobbyists</text><rect fill="#795548" height="60" rx="10" ry="10" width="300" x="20" y="820" /><text fill="#fff" font-family="Chivo" font-size="16px" x="35" y="855">Ruby (10%)</text><rect fill="#607D8B" height="60" rx="10" ry="10" width="300" x="340" y="820" /><text fill="#fff" font-family="Chivo" font-size="16px" x="355" y="855">Lua (10%)</text></svg>